<?xml version="1.0" encoding="UTF-8" standalone="no"?>
<!-- Created with Inkscape (http://www.inkscape.org/) -->

<svg
   width="20.299778mm"
   height="6.9395638mm"
   viewBox="0 0 20.299778 6.9395638"
   version="1.1"
   id="svg5"
   inkscape:version="1.4.2 (ebf0e940d0, 2025-05-08)"
   sodipodi:docname="taypresso.svg"
   xml:space="preserve"
   inkscape:export-filename="Taypresso/g16yt.png"
   inkscape:export-xdpi="632.49585"
   inkscape:export-ydpi="632.49585"
   xmlns:inkscape="http://www.inkscape.org/namespaces/inkscape"
   xmlns:sodipodi="http://sodipodi.sourceforge.net/DTD/sodipodi-0.dtd"
   xmlns="http://www.w3.org/2000/svg"
   xmlns:svg="http://www.w3.org/2000/svg"><sodipodi:namedview
     id="namedview7"
     pagecolor="#ffffff"
     bordercolor="#666666"
     borderopacity="1.0"
     inkscape:pageshadow="2"
     inkscape:pageopacity="0.0"
     inkscape:pagecheckerboard="0"
     inkscape:document-units="mm"
     showgrid="false"
     inkscape:zoom="2.7340968"
     inkscape:cx="-441.27918"
     inkscape:cy="422.9916"
     inkscape:window-width="1366"
     inkscape:window-height="699"
     inkscape:window-x="0"
     inkscape:window-y="0"
     inkscape:window-maximized="1"
     inkscape:current-layer="layer1"
     inkscape:showpageshadow="2"
     inkscape:deskcolor="#d1d1d1"
     inkscape:lockguides="true"><inkscape:page
       x="0"
       y="0"
       width="20.299778"
       height="6.9395638"
       id="page2"
       margin="0"
       bleed="0" /></sodipodi:namedview><defs
     id="defs2" /><g
     inkscape:label="Layer 1"
     inkscape:groupmode="layer"
     id="layer1"
     transform="translate(90.222918,-106.6271)"><path
       d="m -89.249847,113.01399 c 0.0412,0 0.0578,-0.0247 0.0578,-0.066 0,-0.0165 -0.0165,-0.0412 -0.0495,-0.0743 -0.099,-0.10722 -0.15673,-0.23097 -0.16498,-0.3712 -0.0165,-0.11553 -0.0248,-0.23096 -0.0248,-0.3547 l 0.009,-0.17321 c 0.009,-0.033 0.009,-0.066 0.009,-0.10723 0,-0.0659 0.009,-0.13198 0.0165,-0.18972 0.009,-0.0578 0.0165,-0.11552 0.0248,-0.17323 0.009,-0.16496 0.0248,-0.29694 0.0412,-0.38767 0.009,-0.0413 0.0165,-0.099 0.0248,-0.15674 0.009,-0.0578 0.0412,-0.27219 0.10723,-0.6434 0.0248,-0.12372 0.0495,-0.23921 0.0659,-0.35469 0.0165,-0.10722 0.033,-0.21447 0.0578,-0.31345 0.033,-0.16498 0.0495,-0.26396 0.0495,-0.3052 0.009,-0.0578 0.0165,-0.11552 0.0412,-0.16498 0.0248,-0.0743 0.0412,-0.15671 0.0578,-0.24745 0.009,-0.0825 0.033,-0.16499 0.0578,-0.25572 0.0248,-0.14848 0.0578,-0.29695 0.099,-0.43718 0.0165,-0.0495 0.033,-0.10722 0.0412,-0.16497 0,-0.0412 0.0165,-0.0661 0.0495,-0.0742 0.14024,-0.0412 0.3547,-0.0743 0.64341,-0.10722 l 0.31345,-0.0495 c 0.13198,-0.0248 0.26395,-0.0495 0.39593,-0.0578 0.0248,0 0.0578,0 0.0826,-0.009 0.0248,-0.009 0.0578,-0.009 0.0907,-0.009 0.0412,0 0.0743,0.009 0.099,0.0165 0.0248,0.0165 0.0412,0.0248 0.066,0.0248 0.0248,0 0.0412,-0.009 0.0659,-0.0248 0.0248,-0.009 0.033,-0.033 0.033,-0.0742 l -0.009,-0.033 c -0.0248,-0.12372 -0.0825,-0.23922 -0.17322,-0.32994 -0.0743,-0.0743 -0.16497,-0.11553 -0.2722,-0.12373 -0.0907,0 -0.23921,0.0165 -0.46194,0.0412 -0.32169,0.0412 -0.54441,0.0743 -0.67638,0.10722 h -0.0248 c -0.0248,0 -0.033,-0.009 -0.033,-0.033 v -0.009 c 0.009,-0.009 0.0165,-0.099 0.0412,-0.28869 v -0.0248 c 0,-0.033 -0.009,-0.0578 -0.0165,-0.0825 -0.0661,-0.14849 -0.17323,-0.24747 -0.32995,-0.28871 -0.0248,-0.009 -0.0495,-0.0165 -0.0743,-0.0165 -0.0578,0 -0.10722,0.033 -0.14848,0.10723 -0.0578,0.0825 -0.099,0.17322 -0.12372,0.26395 -0.009,0.033 -0.0165,0.066 -0.0331,0.0907 -0.0165,0.0248 -0.033,0.0578 -0.0412,0.099 -0.009,0.0412 -0.0248,0.0826 -0.033,0.12373 -0.0165,0.0495 -0.0248,0.0991 -0.033,0.14023 -0.009,0.0495 -0.0248,0.0825 -0.0495,0.0907 -0.0248,0.0165 -0.0495,0.0248 -0.0826,0.033 -0.009,0.009 -0.0248,0.009 -0.0495,0.009 -0.0248,0.009 -0.0659,0.0165 -0.13198,0.033 -0.0661,0.0165 -0.13199,0.0331 -0.19797,0.0495 -0.0743,0.0165 -0.12373,0.033 -0.14847,0.0413 -0.0248,0.0165 -0.0578,0.033 -0.0826,0.0495 -0.0248,0.0165 -0.0495,0.033 -0.0743,0.0412 -0.0495,0.0248 -0.0743,0.0743 -0.0743,0.13198 0,0.0743 0.033,0.15672 0.0907,0.23921 0.0578,0.0825 0.12373,0.12373 0.20621,0.12373 0.033,0 0.0659,-0.009 0.0907,-0.0165 0.0248,-0.009 0.0907,-0.0165 0.18972,-0.0165 0.0907,0 0.13197,0.009 0.13197,0.0165 -0.0248,0.0825 -0.0412,0.18971 -0.0578,0.31344 l -0.12372,0.75888 -0.0907,0.59392 c -0.009,0.0494 -0.009,0.10722 -0.0165,0.16496 -0.009,0.0659 -0.0165,0.13199 -0.0248,0.20623 l -0.0661,0.55265 c -0.033,0.32995 -0.0495,0.54442 -0.0495,0.64341 v 0.2887 l 0.009,0.17322 c 0,0.3547 0.11553,0.63516 0.33821,0.84962 0.0742,0.0907 0.17322,0.14847 0.28045,0.18147 z m 2.51586,-0.86612 c 0.0495,-0.009 0.0742,-0.0248 0.0742,-0.0495 0,-0.009 -0.009,-0.0248 -0.0248,-0.0495 -0.10722,-0.14023 -0.17323,-0.28871 -0.21447,-0.44543 -0.009,-0.033 -0.0165,-0.0578 -0.0165,-0.0743 0,-0.0165 0.033,-0.0331 0.0907,-0.0413 0.009,0 0.009,0 0.009,-0.009 l 0.14847,-0.0248 c 0.0248,0 0.0578,0.009 0.0907,0.0165 l 0.033,0.009 c 0.0248,0 0.0412,-0.0248 0.0412,-0.066 -0.009,-0.033 -0.0165,-0.0661 -0.0412,-0.0989 -0.0907,-0.14023 -0.22271,-0.22271 -0.40419,-0.24747 -0.0411,0 -0.0578,-0.0165 -0.0659,-0.0578 l -0.033,-0.3382 v -0.13197 c -0.0165,-0.13198 -0.0248,-0.26396 -0.0248,-0.39595 l 0.009,-0.5609 c 0,-0.0907 0.009,-0.18973 0.0165,-0.28046 l 0.0411,-0.68464 -0.009,-0.27221 h 0.0165 l -0.009,-0.099 c -0.009,-0.0248 -0.0165,-0.0495 -0.033,-0.0742 -0.1154,-0.13199 -0.26395,-0.20622 -0.44542,-0.22272 h -0.0165 c -0.0743,0 -0.12374,0.033 -0.15673,0.10723 -0.033,0.0743 -0.0659,0.14847 -0.0907,0.2227 -0.0907,0.20623 -0.14022,0.32995 -0.15672,0.3877 -0.0248,0.0578 -0.0495,0.10722 -0.0743,0.16498 -0.0248,0.0578 -0.0495,0.12373 -0.0743,0.19796 -0.0248,0.0742 -0.0495,0.14847 -0.0826,0.22272 -0.033,0.0743 -0.0907,0.21446 -0.16497,0.43718 l -0.033,0.0826 c -0.0248,0.11553 -0.0743,0.24746 -0.13199,0.40418 l -0.0743,0.23921 c -0.009,0.0412 -0.0165,0.0742 -0.0248,0.10722 l -0.14022,0.52793 c -0.009,0.0578 -0.0165,0.11553 -0.033,0.16496 -0.0248,0.0495 -0.033,0.099 -0.033,0.14023 -0.0248,0.10723 -0.0412,0.22273 -0.0495,0.3382 0,0.0826 0.0411,0.14023 0.1154,0.17323 0.0412,0.0247 0.0743,0.033 0.11553,0.0412 0.0412,0.009 0.0743,0.033 0.11553,0.0578 0.033,0.0247 0.0743,0.0411 0.11553,0.0411 0.0248,0 0.0578,-0.009 0.0825,-0.0165 0.0248,-0.009 0.0578,-0.0165 0.0826,-0.0247 0.0578,-0.0165 0.10722,-0.0412 0.15673,-0.066 0.11553,-0.0578 0.23096,-0.10722 0.34645,-0.14848 0.0825,-0.0248 0.16497,-0.0578 0.23921,-0.0907 0.0248,-0.009 0.0412,-0.0165 0.0495,-0.0165 0.0248,0 0.0412,0.0165 0.0578,0.0495 0.0578,0.15672 0.15674,0.28045 0.31346,0.37119 0.0825,0.0578 0.17323,0.0826 0.27221,0.0826 z m -1.2868,-0.80012 c -0.009,0 -0.009,0 -0.0165,-0.009 -0.009,0 -0.009,0 -0.009,-0.009 l 0.0578,-0.16496 c 0.11553,-0.28871 0.19798,-0.55267 0.24746,-0.79188 0.009,-0.0661 0.0248,-0.12373 0.0578,-0.18147 0.009,-0.009 0.0165,-0.033 0.0165,-0.066 v 0.0578 c 0,0.066 0.009,0.12373 0.0165,0.18148 0.009,0.0578 0.0165,0.11553 0.0248,0.17322 l 0.0495,0.3217 0.009,0.033 c 0.009,0.0743 0.0165,0.14847 0.0412,0.22271 l 0.009,0.033 c 0,0.0248 -0.0248,0.0412 -0.0825,0.0495 -0.0578,0.009 -0.19798,0.0578 -0.40419,0.14024 z m -0.57741,1.63324 0.15673,-0.033 c 0.0743,-0.0165 0.21447,-0.0661 0.41243,-0.14848 0.37121,-0.14848 0.63515,-0.24746 0.80014,-0.29696 0.033,-0.009 0.0659,-0.0165 0.0907,-0.0247 l 0.0659,-0.0165 c 0.0165,0 0.033,0 0.0578,0.009 0.0165,0.009 0.033,0.0165 0.0578,0.0165 0.009,0 0.0248,-0.009 0.033,-0.0165 0.009,-0.009 0.0165,-0.0247 0.0165,-0.033 l -0.009,-0.0495 c -0.0248,-0.0907 -0.0826,-0.16497 -0.17323,-0.22271 -0.0907,-0.0578 -0.18972,-0.0826 -0.29694,-0.0826 h -0.0165 c -0.009,0 -0.0165,0 -0.033,0.009 -0.0165,0.009 -0.033,0.009 -0.0578,0.009 -0.15672,0.0165 -0.36293,0.066 -0.61864,0.14022 l -0.31346,0.0907 c -0.15673,0.0412 -0.29695,0.0907 -0.43718,0.16496 -0.0659,0.0247 -0.099,0.066 -0.099,0.11553 l 0.009,0.0495 c 0.0411,0.13199 0.13197,0.23097 0.26395,0.29695 0.0248,0.0165 0.0578,0.0247 0.0907,0.0247 z m 2.46637,0.58566 c 0.0907,0 0.13199,-0.009 0.13199,-0.0248 0,-0.0165 0,-0.0247 0,-0.0331 0,-0.0247 -0.0165,-0.0495 -0.0578,-0.0742 -0.0412,-0.0248 -0.0578,-0.0743 -0.0578,-0.16497 0,-0.0578 0.009,-0.12374 0.0248,-0.20622 0.0495,-0.32169 0.15673,-0.72589 0.3217,-1.21256 l 0.0248,-0.0826 c 0.18972,-0.60215 0.40417,-1.13831 0.64339,-1.62499 0.23097,-0.48667 0.43718,-0.89086 0.6269,-1.22906 0.24747,-0.43718 0.37119,-0.70938 0.37119,-0.81662 v -0.0165 c -0.0578,-0.15672 -0.17322,-0.2557 -0.33819,-0.28871 h -0.0165 c -0.15672,0 -0.33819,0.18147 -0.55266,0.55268 -0.21446,0.37117 -0.41243,0.78361 -0.5939,1.22905 -0.18148,0.44543 -0.29696,0.75888 -0.3382,0.94034 -0.10723,-0.28045 -0.17323,-0.6269 -0.19797,-1.03108 -0.0248,-0.28871 -0.0578,-0.52792 -0.10723,-0.70114 -0.033,-0.0743 -0.0907,-0.13198 -0.16496,-0.17323 -0.0826,-0.033 -0.16498,-0.0495 -0.24747,-0.0495 -0.0825,0.009 -0.14022,0.0248 -0.17322,0.066 -0.033,0.0412 -0.0495,0.10722 -0.0495,0.19797 0,0.14023 0.0165,0.32169 0.0495,0.56091 l 0.0248,0.14848 c 0.18973,0.9486 0.40419,1.45177 0.65165,1.50127 0.0248,0.0165 0.0411,0.0331 0.0411,0.0495 l -0.009,0.033 c -0.3052,0.8991 -0.45368,1.55075 -0.45368,1.94669 0,0.0907 0.009,0.17322 0.033,0.23921 0.0413,0.0907 0.099,0.15672 0.18972,0.19796 0.0825,0.0412 0.15672,0.0661 0.22271,0.0661 z m 1.74873,-0.47843 c 0.0659,0 0.11541,-0.0578 0.14848,-0.18147 0.009,-0.0248 0.0165,-0.0412 0.0248,-0.066 0.009,-0.0248 0.009,-0.0413 0.009,-0.0578 0,-0.0247 -0.0165,-0.0495 -0.0495,-0.0743 -0.033,-0.0165 -0.0495,-0.033 -0.0495,-0.0578 l 0.10722,-0.83312 c 0.0412,-0.2887 0.0826,-0.44543 0.11553,-0.47017 0.0248,-0.0248 0.0743,-0.0413 0.14022,-0.0495 0.23921,-0.0413 0.54442,-0.17322 0.93211,-0.40419 0.0165,-0.009 0.033,-0.0248 0.0495,-0.0412 0.0165,-0.0165 0.033,-0.033 0.0578,-0.0413 0.0907,-0.0578 0.22272,-0.15674 0.38769,-0.29696 0.0743,-0.0659 0.14848,-0.14023 0.20622,-0.21447 l 0.033,-0.0412 c 0.0907,-0.10723 0.16497,-0.22273 0.22272,-0.34647 l 0.0248,-0.0413 c 0.0248,-0.0412 0.0495,-0.0989 0.0743,-0.17322 0.0743,-0.18972 0.10722,-0.37944 0.10722,-0.57741 0,-0.40419 -0.16497,-0.71764 -0.48668,-0.92385 -0.18972,-0.12374 -0.41243,-0.18973 -0.6599,-0.18973 -0.20622,0 -0.42893,0.0412 -0.66814,0.13198 -0.0412,0.009 -0.0826,0.0165 -0.11541,0.0165 -0.0248,0 -0.0495,0 -0.0659,-0.009 -0.0248,-0.009 -0.0413,-0.009 -0.0578,-0.009 -0.0413,0 -0.0825,0.033 -0.12373,0.0907 -0.009,0.0165 -0.0165,0.033 -0.0248,0.0578 -0.009,0.0248 -0.0248,0.0494 -0.0495,0.0742 -0.0743,0.0578 -0.13198,0.11552 -0.17322,0.17321 -0.0412,0.0661 -0.0659,0.11553 -0.0659,0.15674 0,0.0578 0.009,0.099 0.033,0.14022 0.0165,0.0412 0.0248,0.0907 0.0248,0.13197 0,0.0578 -0.0165,0.14024 -0.0495,0.23922 -0.0165,0.0495 -0.0248,0.0826 -0.0248,0.099 -0.009,0.0165 -0.0165,0.0578 -0.0248,0.12372 l -0.13197,0.57741 c -0.0495,0.23097 -0.0907,0.46194 -0.11553,0.6929 -0.009,0.0248 -0.033,0.033 -0.0578,0.033 -0.0495,0 -0.0743,0.0165 -0.0743,0.0495 v 0.0248 c 0.0165,0.0412 0.033,0.0743 0.0578,0.099 0.0165,0.0248 0.0248,0.0743 0.0248,0.13198 0,0.0743 -0.009,0.18146 -0.0248,0.31345 -0.0578,0.36295 -0.0826,0.77538 -0.0826,1.23731 0,0.15672 0.0165,0.26395 0.0495,0.33819 0.033,0.0742 0.13198,0.13199 0.2887,0.15672 z m 0.45367,-2.26838 c -0.0165,0 -0.0248,-0.009 -0.0248,-0.033 l 0.009,-0.0248 c 0.0165,-0.0578 0.033,-0.10722 0.0412,-0.15672 0.009,-0.0495 0.0248,-0.099 0.0411,-0.14023 0.009,-0.0412 0.0165,-0.0825 0.0248,-0.12373 0.009,-0.033 0.0165,-0.066 0.0248,-0.10723 0.0248,-0.0825 0.0495,-0.16498 0.0659,-0.25572 0.009,-0.0907 0.0248,-0.16496 0.0495,-0.2227 l 0.0743,-0.34645 0.009,-0.0495 0.099,-0.45369 c 0.0248,-0.12372 0.033,-0.21446 0.033,-0.25571 0.009,-0.0248 0.009,-0.0412 0.0165,-0.0578 0,-0.009 0.0165,-0.0248 0.0411,-0.0331 0.24746,-0.0578 0.46193,-0.0825 0.63515,-0.0825 0.10722,0 0.19797,0.009 0.28045,0.033 0.033,0.0165 0.0495,0.0578 0.0495,0.11553 0,0.0659 -0.0165,0.16496 -0.0495,0.30519 l -0.0578,0.20622 c -0.033,0.0742 -0.0578,0.13198 -0.066,0.17323 -0.0165,0.0412 -0.033,0.0743 -0.0495,0.0989 -0.0165,0.0248 -0.0248,0.0495 -0.033,0.0578 -0.009,0.0165 -0.0165,0.033 -0.033,0.0578 -0.10723,0.25572 -0.27221,0.50317 -0.50318,0.75888 -0.20621,0.22271 -0.41243,0.39594 -0.62691,0.51967 z m 2.25192,1.60848 c 0.0495,0 0.0743,-0.0248 0.0743,-0.0659 0,-0.0165 -0.009,-0.033 -0.0165,-0.0578 -0.0165,-0.0165 -0.0248,-0.0659 -0.0248,-0.14847 0,-0.0826 0,-0.14024 0.009,-0.17322 0.009,-0.0907 0.0165,-0.16498 0.0248,-0.23097 0.0248,-0.28046 0.0495,-0.42893 0.0825,-0.44543 0.0331,-0.0165 0.0826,-0.0247 0.15672,-0.0247 0.12374,0 0.28046,-0.0165 0.46193,-0.0578 0.22273,-0.0495 0.53617,-0.18146 0.94037,-0.40419 0.23095,-0.12372 0.43717,-0.2722 0.6104,-0.46193 0.0248,-0.0248 0.033,-0.0578 0.033,-0.0907 0,-0.0659 -0.033,-0.12373 -0.10722,-0.17323 0,-0.009 0,-0.0165 -0.009,-0.0248 -0.009,-0.009 -0.0165,-0.009 -0.0248,-0.0165 -0.009,0 -0.0165,0 -0.0248,0 l -0.0578,0.0412 c -0.14848,0.10722 -0.37945,0.22272 -0.70115,0.36295 -0.2887,0.13198 -0.60214,0.22271 -0.94035,0.2722 0.0743,-0.0742 0.20622,-0.18972 0.40419,-0.34645 0.32995,-0.2557 0.6599,-0.55265 0.98159,-0.8826 0.3217,-0.32995 0.48667,-0.62691 0.48667,-0.89087 v -0.0495 c -0.0578,-0.22272 -0.14846,-0.38769 -0.28869,-0.48667 -0.14024,-0.0907 -0.27221,-0.14024 -0.37945,-0.14848 h -0.22271 c -0.2557,0 -0.52793,0.0495 -0.82487,0.15672 -0.11553,0.0412 -0.17323,0.0742 -0.18148,0.0825 -0.0412,0.0495 -0.099,0.099 -0.17322,0.14848 -0.12372,0.0742 -0.2227,0.17323 -0.31344,0.30521 -0.0248,0.0412 -0.033,0.0743 -0.033,0.099 0,0.0248 0.009,0.0412 0.0165,0.0495 0.0165,0.0413 0.0412,0.0659 0.0826,0.0907 0.0411,0.0412 0.0578,0.0661 0.0578,0.0825 -0.0495,0.14848 -0.0907,0.29694 -0.13198,0.44542 -0.0412,0.15673 -0.0826,0.37944 -0.14023,0.66814 -0.0248,0.10722 -0.0495,0.22273 -0.0578,0.32995 l -0.0248,0.13198 c -0.009,0.066 -0.0165,0.13198 -0.0248,0.20621 -0.009,0.0413 -0.0248,0.0578 -0.0331,0.0578 l -0.0826,-0.0165 c -0.009,0 -0.0248,0.009 -0.033,0.0165 -0.0165,0.009 -0.0248,0.0413 -0.0248,0.0825 0.009,0.009 0.009,0.0165 0.009,0.0248 0,0.0248 -0.0248,0.0495 -0.0743,0.0743 -0.0495,0.0248 -0.0743,0.0495 -0.0743,0.0907 0,0.0578 0.0331,0.11553 0.10722,0.16499 0.033,0.033 0.0742,0.0578 0.11553,0.0825 l 0.009,0.0247 -0.009,0.0826 c -0.0165,0.16496 -0.0248,0.29694 -0.0248,0.40417 v 0.23922 c 0.0165,0.14022 0.0661,0.23095 0.14023,0.28871 0.0743,0.0578 0.16498,0.0825 0.25571,0.0907 z m 0.39592,-2.30138 c 0.0412,-0.17322 0.10722,-0.42069 0.21447,-0.73414 l 0.0495,-0.15672 0.0742,-0.23097 c 0.0248,-0.0578 0.0413,-0.11553 0.0578,-0.17322 0.009,-0.0578 0.033,-0.12373 0.0578,-0.18971 0.0165,-0.033 0.0248,-0.0661 0.033,-0.10723 0.009,-0.0413 0.0248,-0.0661 0.0659,-0.0742 0.20622,-0.0743 0.42069,-0.11553 0.64341,-0.11553 0.0743,0 0.15673,0.009 0.23921,0.0165 0.0495,0.009 0.0743,0.009 0.0826,0.0165 0.009,0.009 0.009,0.0165 0.009,0.0248 0,0.0165 -0.009,0.0412 -0.0248,0.0659 l -0.009,0.009 c -0.0578,0.13198 -0.18147,0.30521 -0.37119,0.51143 -0.18972,0.21446 -0.39594,0.42068 -0.60216,0.6269 -0.20621,0.20622 -0.37119,0.37119 -0.49492,0.47843 z m 2.18591,0.6599 c 0.0248,0 0.10723,-0.0413 0.24747,-0.11553 l 0.37119,-0.19796 c 0.12374,-0.0742 0.25571,-0.14023 0.40419,-0.20623 0.14023,-0.0659 0.2557,-0.11552 0.33819,-0.15672 0.033,-0.0248 0.12374,-0.0661 0.27221,-0.12373 0.14023,-0.0578 0.28871,-0.12372 0.44543,-0.18972 0.15672,-0.0578 0.31346,-0.10722 0.47019,-0.14847 0.0495,-0.009 0.0743,-0.0412 0.0743,-0.0826 l -0.009,-0.0495 c -0.0248,-0.0742 -0.0743,-0.14023 -0.14023,-0.19797 -0.0413,-0.033 -0.0826,-0.0495 -0.13198,-0.0495 -0.18148,0.0165 -0.43719,0.0825 -0.76713,0.19797 l -0.099,0.0248 -0.37943,0.12373 -0.11553,0.0412 c -0.0743,0.0165 -0.14023,0.0413 -0.21446,0.0742 0.0248,-0.0248 0.0412,-0.0495 0.0659,-0.0661 l 0.0248,-0.009 c 0.37119,-0.28045 0.75064,-0.54442 1.15481,-0.79187 0.12374,-0.0907 0.24747,-0.14848 0.35471,-0.17322 h 0.0248 l 0.0825,0.0165 c 0.0495,0 0.0743,-0.0248 0.0743,-0.0825 v -0.033 c -0.0248,-0.10723 -0.0743,-0.19798 -0.16497,-0.2722 -0.0412,-0.033 -0.0907,-0.0578 -0.14848,-0.066 -0.10722,0 -0.26395,0.0165 -0.45367,0.0412 -0.0412,0.009 -0.0826,0.0165 -0.12374,0.0248 l -0.22272,0.0413 c -0.0248,0.009 -0.0495,0.009 -0.0743,0.009 -0.13198,0.033 -0.21447,0.0495 -0.23922,0.0495 -0.033,0.009 -0.0661,0.009 -0.099,0.0165 -0.0578,0.009 -0.18971,0.0495 -0.41244,0.11541 -0.12372,0.033 -0.23921,0.0825 -0.35469,0.14023 -0.0743,0.0248 -0.14022,0.0661 -0.21447,0.14023 -0.0413,0.0412 -0.0578,0.0743 -0.0578,0.11553 0,0.0248 0.009,0.0578 0.0165,0.0825 0.0413,0.099 0.099,0.18148 0.18148,0.23922 0.0412,0.0411 0.0991,0.0661 0.16497,0.0661 l 0.16498,-0.033 c 0.0743,-0.0165 0.14847,-0.0412 0.22271,-0.0659 0.0248,-0.0165 0.0578,-0.033 0.099,-0.0412 0.033,-0.009 0.0659,-0.0165 0.0989,-0.033 h 0.009 c 0.0248,-0.0165 0.0495,-0.0248 0.0742,-0.033 0.099,-0.009 0.19797,-0.0412 0.28871,-0.0907 0.009,0 0.0165,-0.009 0.033,-0.0165 0.009,-0.009 0.033,-0.0165 0.0742,-0.0165 -0.0248,0.0248 -0.0578,0.0495 -0.11553,0.0742 -0.17322,0.12372 -0.34645,0.24745 -0.51967,0.36293 -0.17323,0.12374 -0.32995,0.25571 -0.47017,0.40419 -0.0907,0.099 -0.18971,0.17323 -0.31346,0.23097 -0.12372,0.0578 -0.2227,0.14848 -0.29694,0.2557 -0.0165,0.033 -0.0248,0.0661 -0.0248,0.0907 0,0.0248 0,0.0412 0.009,0.0578 0.0495,0.14023 0.14022,0.23097 0.2722,0.28871 0.0165,0.009 0.033,0.0165 0.0495,0.0165 z m -0.2557,1.2703 c 0.0412,0 0.0742,-0.009 0.10723,-0.0247 l 0.3052,-0.18149 0.10723,-0.0742 c 0.0165,-0.009 0.033,-0.0165 0.0412,-0.0247 0.0495,-0.033 0.11553,-0.0661 0.19796,-0.10722 0.0742,-0.0412 0.15674,-0.0826 0.23922,-0.12374 0.0743,-0.0411 0.15673,-0.0907 0.24745,-0.13197 0.0907,-0.0412 0.18148,-0.0743 0.28046,-0.10723 0.0742,-0.0248 0.14849,-0.0578 0.21448,-0.0907 0.0578,-0.033 0.16496,-0.0659 0.3052,-0.10722 0.14022,-0.0578 0.28869,-0.099 0.42893,-0.13199 0.0412,-0.009 0.0825,-0.0248 0.12373,-0.033 0.033,-0.009 0.066,-0.0165 0.099,-0.0165 0.033,0 0.0578,0 0.0826,0.009 0.0248,0.009 0.0412,0.0165 0.0495,0.0165 0.0412,0 0.0659,-0.033 0.0659,-0.0907 -0.009,-0.0578 -0.0248,-0.099 -0.0495,-0.14022 -0.0578,-0.12374 -0.15673,-0.19797 -0.28045,-0.23097 h -0.0495 c -0.0743,0 -0.32995,0.0578 -0.76714,0.16497 -0.18971,0.0495 -0.38769,0.10723 -0.5774,0.17322 l -0.28871,0.0907 c -0.0578,0.0248 -0.11553,0.0411 -0.17322,0.0578 -0.0659,0.0248 -0.13199,0.0495 -0.19797,0.0907 -0.0412,0.0248 -0.0826,0.0413 -0.11553,0.0495 -0.0578,0.0248 -0.14022,0.0742 -0.24746,0.14848 -0.0578,0.0248 -0.12373,0.0743 -0.19796,0.14023 -0.10722,0.0825 -0.17323,0.14846 -0.20623,0.19796 -0.0578,0.0578 -0.0907,0.11553 -0.0907,0.15672 0,0.0247 0.009,0.0578 0.0248,0.0825 0.0578,0.10723 0.13199,0.18149 0.23097,0.22273 0.033,0.009 0.0659,0.0165 0.0907,0.0165 z m 2.80456,0.0742 c 0.0742,0 0.14023,-0.009 0.20621,-0.0248 0.0742,0 0.21447,-0.0247 0.43717,-0.0659 0.20623,-0.0247 0.41245,-0.0826 0.60217,-0.16499 0.14023,-0.0578 0.25571,-0.14022 0.34644,-0.2557 0.0413,-0.0578 0.0661,-0.12373 0.0661,-0.18972 -0.009,-0.11552 -0.0907,-0.24747 -0.24747,-0.38769 -0.17323,-0.17323 -0.29695,-0.37944 -0.36294,-0.61866 l -0.0248,-0.0743 c -0.033,-0.11552 -0.0495,-0.27221 -0.0495,-0.47842 0,-0.18148 0.0248,-0.35469 0.0825,-0.51967 0.0495,-0.15673 0.11553,-0.3052 0.18972,-0.43719 0.009,-0.0248 0.0165,-0.033 0.0248,-0.033 h 0.009 l -0.033,0.2227 c -0.0248,0.22273 -0.0331,0.4042 -0.0331,0.55268 0,0.0743 0.009,0.15672 0.0248,0.23921 0.0165,0.0826 0.0907,0.14022 0.23096,0.16497 l 0.0412,0.009 c 0.0495,0 0.0742,-0.033 0.0826,-0.099 0.0165,-0.10722 0.033,-0.20621 0.0578,-0.3052 0.009,-0.033 0.0165,-0.066 0.0248,-0.10723 0.033,-0.15672 0.0743,-0.30521 0.12374,-0.46193 l 0.0165,-0.0413 c 0.033,-0.10723 0.0743,-0.21447 0.12373,-0.32171 0.0578,-0.18972 0.0907,-0.32994 0.0907,-0.41242 0,-0.0412 -0.009,-0.066 -0.0165,-0.0743 -0.10723,-0.14023 -0.24746,-0.21447 -0.42069,-0.23097 h -0.033 c -0.0907,0 -0.16498,0.0907 -0.20622,0.26396 0,0.0165 -0.009,0.0248 -0.033,0.0248 -0.009,-0.009 -0.0165,-0.009 -0.0248,-0.009 -0.009,0 -0.0165,0 -0.0248,-0.009 -0.0578,-0.0165 -0.10722,-0.0248 -0.16498,-0.0248 -0.18972,0 -0.35468,0.10722 -0.51141,0.32995 -0.0578,0.0578 -0.10723,0.14848 -0.15674,0.28871 l -0.009,0.0165 c -0.0826,0.22272 -0.12374,0.46192 -0.12374,0.73413 0,0.18148 0.0248,0.36295 0.0826,0.53617 0.0743,0.28871 0.22272,0.57742 0.42894,0.84961 0.0411,0.0495 0.0742,0.099 0.11553,0.14848 0.033,0.0578 0.0495,0.10722 0.0495,0.14848 0,0.0742 -0.0578,0.14847 -0.18148,0.23097 l -0.009,0.009 c -0.099,0.0659 -0.20621,0.11552 -0.3217,0.14847 l -0.033,0.009 c -0.13197,0.0413 -0.26395,0.0826 -0.40419,0.10722 -0.0412,0.0247 -0.10722,0.033 -0.19796,0.033 l -0.11552,-0.009 -0.0412,0.009 c -0.0578,0.009 -0.0907,0.033 -0.10722,0.0907 v 0.0165 c 0,0.033 0.0248,0.066 0.0743,0.0907 0.0742,0.0578 0.18972,0.0826 0.3547,0.0826 z m 1.80647,0 c 0.0743,0 0.14022,-0.009 0.20621,-0.0248 0.0743,0 0.21446,-0.0247 0.43718,-0.0659 0.20622,-0.0247 0.41244,-0.0826 0.60216,-0.16499 0.14023,-0.0578 0.25571,-0.14022 0.34643,-0.2557 0.0412,-0.0578 0.066,-0.12373 0.066,-0.18972 -0.009,-0.11552 -0.0907,-0.24747 -0.24746,-0.38769 -0.17323,-0.17323 -0.29696,-0.37944 -0.36295,-0.61866 l -0.0248,-0.0743 c -0.033,-0.11552 -0.0495,-0.27221 -0.0495,-0.47842 0,-0.18148 0.0248,-0.35469 0.0826,-0.51967 0.0495,-0.15673 0.11553,-0.3052 0.18973,-0.43719 0.009,-0.0248 0.0165,-0.033 0.0248,-0.033 h 0.009 l -0.033,0.2227 c -0.0248,0.22273 -0.033,0.4042 -0.033,0.55268 0,0.0743 0.009,0.15672 0.0248,0.23921 0.0165,0.0826 0.0907,0.14022 0.23096,0.16497 l 0.0412,0.009 c 0.0495,0 0.0743,-0.033 0.0825,-0.099 0.0165,-0.10722 0.033,-0.20621 0.0578,-0.3052 0.009,-0.033 0.0165,-0.066 0.0248,-0.10723 0.033,-0.15672 0.0743,-0.30521 0.12373,-0.46193 l 0.0165,-0.0413 c 0.033,-0.10723 0.0742,-0.21447 0.12374,-0.32171 0.0578,-0.18972 0.0907,-0.32994 0.0907,-0.41242 0,-0.0412 -0.009,-0.066 -0.0165,-0.0743 -0.10723,-0.14023 -0.24746,-0.21447 -0.42069,-0.23097 h -0.033 c -0.0907,0 -0.16498,0.0907 -0.20623,0.26396 0,0.0165 -0.009,0.0248 -0.033,0.0248 -0.009,-0.009 -0.0165,-0.009 -0.0248,-0.009 -0.009,0 -0.0165,0 -0.0248,-0.009 -0.0578,-0.0165 -0.10723,-0.0248 -0.16497,-0.0248 -0.18973,0 -0.3547,0.10722 -0.51142,0.32995 -0.0578,0.0578 -0.10722,0.14848 -0.15672,0.28871 l -0.009,0.0165 c -0.0825,0.22272 -0.12373,0.46192 -0.12373,0.73413 0,0.18148 0.0248,0.36295 0.0826,0.53617 0.0742,0.28871 0.22272,0.57742 0.42894,0.84961 0.0412,0.0495 0.0742,0.099 0.11541,0.14848 0.033,0.0578 0.0495,0.10722 0.0495,0.14848 0,0.0742 -0.0578,0.14847 -0.18146,0.23097 l -0.009,0.009 c -0.099,0.0659 -0.20623,0.11552 -0.3217,0.14847 l -0.033,0.009 c -0.13198,0.0413 -0.26395,0.0826 -0.40419,0.10722 -0.0413,0.0247 -0.10722,0.033 -0.19797,0.033 l -0.11553,-0.009 -0.0412,0.009 c -0.0578,0.009 -0.0907,0.033 -0.10723,0.0907 v 0.0165 c 0,0.033 0.0248,0.066 0.0742,0.0907 0.0743,0.0578 0.18972,0.0826 0.3547,0.0826 z m 3.1675,-1.08883 c 0.15673,0 0.31345,-0.033 0.48668,-0.10722 0.11553,-0.0413 0.2227,-0.0907 0.32995,-0.16497 l 0.0907,-0.0578 c 0.0578,-0.0412 0.11553,-0.0825 0.16498,-0.12373 l 0.17323,-0.16498 c 0.23921,-0.26395 0.37119,-0.56091 0.39593,-0.89911 v -0.0743 c 0,-0.10723 -0.0165,-0.20622 -0.0495,-0.3052 -0.13197,-0.37119 -0.37944,-0.63516 -0.73413,-0.78363 -0.15672,-0.0742 -0.25572,-0.12372 -0.31346,-0.14847 -0.0578,-0.0165 -0.10722,-0.0412 -0.13197,-0.0825 -0.066,-0.099 -0.14024,-0.14848 -0.23096,-0.14848 -0.0248,0 -0.0578,0.009 -0.099,0.0165 -0.0495,0.0165 -0.099,0.0248 -0.14848,0.0248 h -0.0578 c -0.0495,0 -0.0826,0.009 -0.099,0.033 -0.0248,0.0248 -0.033,0.0412 -0.033,0.066 0,0.0248 0.009,0.0412 0.0165,0.0661 0.009,0.0248 0.009,0.0412 0.009,0.0578 0,0.033 -0.009,0.066 -0.033,0.0907 -0.18972,0.23921 -0.3712,0.57739 -0.55267,1.01458 -0.0248,0.0578 -0.0412,0.10722 -0.0495,0.15672 -0.0165,0.0578 -0.033,0.10722 -0.0578,0.14847 v 0.009 c -0.0165,0.0248 -0.0248,0.0578 -0.0248,0.099 0,0.0412 0,0.0907 -0.009,0.14024 -0.009,0.0495 -0.0165,0.099 -0.0165,0.14022 0,0.0578 0,0.0907 0.009,0.11553 0.009,0.15672 0.0825,0.32169 0.21446,0.48667 0.23095,0.26395 0.47842,0.39593 0.75063,0.39593 z m -0.38769,-0.63513 h -0.033 c -0.0165,0 -0.0248,-0.0165 -0.0248,-0.0578 0.009,-0.13199 0.033,-0.23922 0.0578,-0.32995 0.0248,-0.0907 0.0578,-0.17322 0.0826,-0.26396 0.0165,-0.0412 0.0412,-0.0825 0.066,-0.12373 l 0.009,-0.033 c 0.0248,-0.0412 0.0578,-0.099 0.0825,-0.15672 0.0248,-0.0578 0.0495,-0.10722 0.0825,-0.16497 l 0.0412,-0.0743 c 0.066,-0.10723 0.13198,-0.21446 0.20622,-0.3217 l 0.0495,-0.0743 c 0.0659,-0.11552 0.12372,-0.18971 0.18146,-0.2227 l 0.0248,-0.009 0.033,0.009 0.12374,0.0578 c 0.36294,0.15674 0.5444,0.29696 0.5444,0.40419 0,0.0826 -0.0248,0.18973 -0.0825,0.32171 -0.0578,0.14022 -0.13198,0.25571 -0.22271,0.35469 -0.15672,0.19797 -0.37945,0.37119 -0.65991,0.51967 -0.15671,0.0825 -0.30519,0.13198 -0.43717,0.14023 -0.0412,0.009 -0.0826,0.0165 -0.12373,0.0248 z m -0.28871,1.8312 c 0.0413,0 0.0825,-0.009 0.12374,-0.0165 0.066,-0.0247 0.13198,-0.0412 0.18972,-0.0495 0.0578,-0.009 0.10722,-0.0247 0.14848,-0.0413 l 0.36293,-0.099 0.15673,-0.033 c 0.14024,-0.033 0.27221,-0.0578 0.41244,-0.0826 l 0.23095,-0.0495 c 0.15673,-0.0248 0.32171,-0.0413 0.47843,-0.0495 0.0495,0 0.099,0.009 0.14849,0.0165 h 0.033 c 0.0248,0 0.0412,-0.0165 0.0412,-0.0413 0,-0.0743 -0.0248,-0.14024 -0.0743,-0.20622 -0.0742,-0.11553 -0.18149,-0.18971 -0.30521,-0.22272 -0.0742,-0.009 -0.15673,-0.0165 -0.23097,-0.0165 l -0.0742,-0.009 c -0.23922,0 -0.42068,0.009 -0.55266,0.0248 -0.0907,0 -0.17323,0 -0.25572,0.009 -0.0825,0.009 -0.16496,0.0165 -0.24746,0.0248 -0.12372,0.009 -0.23921,0.0247 -0.35469,0.0495 -0.033,0.009 -0.0659,0.0165 -0.10722,0.0247 -0.10722,0.0248 -0.21446,0.0659 -0.3052,0.10722 -0.14023,0.0495 -0.22272,0.0907 -0.23097,0.11553 -0.009,0.0248 -0.0165,0.0495 -0.0165,0.066 0,0.0248 0.009,0.0578 0.0165,0.0825 0.0412,0.14023 0.13199,0.26397 0.27221,0.35471 0.0412,0.0247 0.0826,0.0411 0.14024,0.0411 z m 0.88262,-2.21889 c 0.0248,0 0.0412,-0.0165 0.0412,-0.0412 v -0.0495 c 0,-0.033 0.033,-0.0991 0.0907,-0.19798 0.0412,-0.0743 0.10722,-0.15672 0.19797,-0.26395 0.0412,-0.0578 0.0742,-0.11553 0.0907,-0.17322 0,-0.009 0,-0.0165 0.009,-0.0248 0.009,-0.009 0.009,-0.0248 0.009,-0.0412 l -0.009,-0.0659 c -0.0413,-0.0907 -0.10722,-0.16498 -0.19796,-0.21447 l -0.033,-0.009 c -0.009,0 -0.0248,0 -0.033,0 -0.009,0.009 -0.0165,0.009 -0.0248,0.0165 -0.0907,0.0412 -0.14848,0.099 -0.18972,0.17322 v 0.0165 l -0.0495,0.0907 c -0.0661,0.11552 -0.10722,0.23095 -0.13199,0.33819 -0.009,0.0248 -0.0165,0.066 -0.0165,0.13198 0,0.0743 0.0165,0.13197 0.0578,0.18971 0.0412,0.0578 0.0907,0.099 0.16497,0.12375 z"
       id="text6-3"
       style="font-size:19.05px;line-height:31.75px;font-family:Empires;-inkscape-font-specification:Empires;letter-spacing:0px;fill:#ffffff;stroke-width:1.7489"
       aria-label="taypresso" /></g></svg>
